# xmcd
#
# Track frame offsets: 
#        150
#        19014
#        30315
#        49422
#        64496
#        80550
#        102458
#        118689
#        141551
#        157958
#        167536
#
# Disc length: 2669 seconds
#
# Revision: 0
# Processed by: cddbd v1.5.2PL0 Copyright (c) Steve Scherf et al.
# Submitted via: ExactAudioCopy v0.99pb4
#
DISCID=940a6b0b
DTITLE=Jimmy Barnes - Live at the playroom '84
DYEAR=2008
DGENRE=Rock
TTITLE0=Boys cry out for war
TTITLE1=Paradise
TTITLE2=Daylight
TTITLE3=Thickskinned
TTITLE4=Vision
TTITLE5=Resurrection shuffle
TTITLE6=Promise me you'll call
TTITLE7=No second prize
TTITLE8=A change is gonna come
TTITLE9=Great balls of fire
TTITLE10=Like a rolling stone
EXTD=
EXTT0=
EXTT1=
EXTT2=
EXTT3=
EXTT4=
EXTT5=
EXTT6=
EXTT7=
EXTT8=
EXTT9=
EXTT10=
PLAYORDER=
